<svg width="121" height="36" viewBox="0 0 121 36" fill="none" xmlns="http://www.w3.org/2000/svg">
<g clip-path="url(#clip0_0_219)">
<path d="M0 4.8C0 2.14903 2.14125 0 4.78261 0H116.217C118.859 0 121 2.14903 121 4.8V31.2C121 33.851 118.859 36 116.217 36H4.78261C2.14125 36 0 33.851 0 31.2V4.8Z" fill="black"/>
<path fill-rule="evenodd" clip-rule="evenodd" d="M0 31.2V4.8C0 2.14903 2.14125 0 4.78261 0H116.217C118.859 0 121 2.14903 121 4.8V31.2C121 33.851 118.859 36 116.217 36H4.78261C2.14125 36 0 33.851 0 31.2ZM0.717391 31.2V4.8C0.717391 2.54669 2.53746 0.72 4.78261 0.72H116.217C118.463 0.72 120.283 2.54669 120.283 4.8V31.2C120.283 33.4534 118.463 35.28 116.217 35.28H4.78261C2.53746 35.28 0.717391 33.4534 0.717391 31.2Z" fill="white" fill-opacity="0.3"/>
<path d="M27.3433 18.7332C27.3309 16.6233 28.2834 15.0331 30.2069 13.8606C29.1311 12.3137 27.5036 11.4629 25.3581 11.2989C23.3267 11.1381 21.1042 12.4869 20.2904 12.4869C19.4303 12.4869 17.4637 11.3546 15.9163 11.3546C12.7227 11.4041 9.32886 13.9101 9.32886 19.0086C9.32886 20.5152 9.60321 22.0714 10.1519 23.6739C10.8855 25.7839 13.5304 30.9535 16.2892 30.87C17.7319 30.8359 18.7522 29.8428 20.6294 29.8428C22.4512 29.8428 23.3945 30.87 25.0037 30.87C27.7872 30.8297 30.1792 26.1305 30.8758 24.0142C27.143 22.2477 27.3433 18.8415 27.3433 18.7332ZM24.1034 9.29729C25.6663 7.43485 25.5245 5.73948 25.4784 5.13C24.0974 5.21045 22.5006 6.07359 21.5912 7.13475C20.5894 8.27326 20.0006 9.68091 20.127 11.268C21.6189 11.3825 22.9814 10.6121 24.1034 9.29729Z" fill="white"/>
<path d="M44.1803 26.0515H42.597L41.7296 23.3037H38.7154L37.8892 26.0515H36.3478L39.3343 16.6969H41.1789L44.1803 26.0515ZM41.4683 22.1509L40.6839 19.7083C40.6012 19.4587 40.4455 18.8711 40.2162 17.946H40.1885C40.0971 18.3439 39.95 18.9315 39.7477 19.7083L38.9775 22.1509H41.4683Z" fill="white"/>
<path d="M51.8608 22.596C51.8608 23.7432 51.5535 24.65 50.9384 25.3157C50.3877 25.9083 49.7038 26.2042 48.8874 26.2042C48.0062 26.2042 47.3732 25.885 46.9878 25.2469H46.9598V28.8001H45.4736V21.5269C45.4736 20.8057 45.4547 20.0655 45.4186 19.3063H46.7257L46.8086 20.3755H46.8364C47.3321 19.5699 48.0844 19.1678 49.0938 19.1678C49.8829 19.1678 50.5417 19.4821 51.0688 20.1112C51.5972 20.741 51.8608 21.569 51.8608 22.596ZM50.3466 22.6508C50.3466 21.9943 50.2002 21.4531 49.9061 21.0271C49.5847 20.5828 49.1531 20.3607 48.6122 20.3607C48.2453 20.3607 47.9122 20.4844 47.6145 20.7284C47.3161 20.9744 47.1209 21.2956 47.0296 21.6935C46.9837 21.879 46.9605 22.0309 46.9605 22.1504V23.275C46.9605 23.7657 47.1097 24.1798 47.4081 24.5177C47.7066 24.8559 48.0942 25.0246 48.571 25.0246C49.1308 25.0246 49.5665 24.8067 49.8781 24.3723C50.1904 23.9372 50.3466 23.3636 50.3466 22.6508Z" fill="white"/>
<path d="M59.5555 22.596C59.5555 23.7432 59.2479 24.65 58.6324 25.3157C58.0824 25.9083 57.3985 26.2042 56.5821 26.2042C55.7009 26.2042 55.0679 25.885 54.6832 25.2469H54.6552V28.8001H53.169V21.5269C53.169 20.8057 53.1501 20.0655 53.1138 19.3063H54.4211L54.5038 20.3755H54.5318C55.0268 19.5699 55.7791 19.1678 56.7892 19.1678C57.5776 19.1678 58.2364 19.4821 58.7649 20.1112C59.2912 20.741 59.5555 21.569 59.5555 22.596ZM58.0413 22.6508C58.0413 21.9943 57.8942 21.4531 57.6001 21.0271C57.2787 20.5828 56.8485 20.3607 56.3069 20.3607C55.9393 20.3607 55.6069 20.4844 55.3085 20.7284C55.0101 20.9744 54.8157 21.2956 54.7243 21.6935C54.6789 21.879 54.6552 22.0309 54.6552 22.1504V23.275C54.6552 23.7657 54.8044 24.1798 55.1014 24.5177C55.3999 24.8552 55.7875 25.0246 56.2657 25.0246C56.8256 25.0246 57.2612 24.8067 57.5728 24.3723C57.8851 23.9372 58.0413 23.3636 58.0413 22.6508Z" fill="white"/>
<path d="M68.1583 23.4284C68.1583 24.224 67.8843 24.8715 67.3343 25.3712C66.73 25.9174 65.8885 26.1901 64.8072 26.1901C63.8088 26.1901 63.0084 25.9961 62.4027 25.6073L62.7471 24.3584C63.3996 24.7563 64.1156 24.9557 64.8956 24.9557C65.4554 24.9557 65.8911 24.8278 66.2042 24.5734C66.5158 24.319 66.6714 23.9774 66.6714 23.5514C66.6714 23.1718 66.543 22.852 66.2857 22.5926C66.0298 22.3332 65.6025 22.0921 65.0059 21.8693C63.3815 21.2584 62.5701 20.3636 62.5701 19.1869C62.5701 18.4179 62.8544 17.7874 63.424 17.2967C63.9915 16.8054 64.7486 16.5601 65.6953 16.5601C66.5397 16.5601 67.2408 16.7084 67.8006 17.0043L67.4292 18.226C66.9063 17.9392 66.3151 17.7958 65.6534 17.7958C65.1307 17.7958 64.722 17.9259 64.4293 18.1845C64.1818 18.4158 64.0577 18.6977 64.0577 19.0316C64.0577 19.4013 64.1993 19.7071 64.4836 19.9475C64.7311 20.1696 65.1809 20.41 65.8333 20.6694C66.6315 20.9934 67.2178 21.3723 67.595 21.8067C67.9709 22.2397 68.1583 22.7817 68.1583 23.4284Z" fill="white"/>
<path d="M73.0722 20.4311H71.434V23.706C71.434 24.5391 71.7226 24.9552 72.3013 24.9552C72.567 24.9552 72.7872 24.9319 72.9615 24.8856L73.0026 26.0237C72.7097 26.1339 72.3242 26.1895 71.8467 26.1895C71.2596 26.1895 70.801 26.0088 70.4698 25.6483C70.14 25.2869 69.9743 24.6809 69.9743 23.8298V20.4297H68.9982V19.305H69.9743V18.07L71.434 17.6257V19.305H73.0722V20.4311Z" fill="white"/>
<path d="M80.4643 22.6234C80.4643 23.6602 80.1701 24.5114 79.5831 25.1772C78.9676 25.8624 78.1505 26.2041 77.132 26.2041C76.1504 26.2041 75.3689 25.8758 74.7861 25.2192C74.2031 24.5628 73.9119 23.734 73.9119 22.7351C73.9119 21.6899 74.2115 20.8337 74.8132 20.168C75.4134 19.5016 76.2235 19.1685 77.242 19.1685C78.2236 19.1685 79.0135 19.4967 79.6096 20.154C80.18 20.7915 80.4643 21.6147 80.4643 22.6234ZM78.9221 22.6719C78.9221 22.0498 78.7904 21.5162 78.5235 21.0713C78.2119 20.5329 77.7664 20.2643 77.1891 20.2643C76.5916 20.2643 76.1377 20.5336 75.8261 21.0713C75.5592 21.517 75.4275 22.0589 75.4275 22.7C75.4275 23.3221 75.5592 23.8556 75.8261 24.2997C76.1475 24.8383 76.5966 25.1068 77.1758 25.1068C77.7434 25.1068 78.1887 24.8328 78.5101 24.2858C78.7841 23.8324 78.9221 23.2932 78.9221 22.6719Z" fill="white"/>
<path d="M85.2954 20.6243C85.1483 20.5969 84.9914 20.5828 84.8269 20.5828C84.3039 20.5828 83.8998 20.7818 83.6152 21.1803C83.3677 21.5318 83.2436 21.976 83.2436 22.5124V26.0516H81.7582L81.772 21.4306C81.772 20.6531 81.7531 19.9453 81.7163 19.307H83.0107L83.0652 20.5976H83.1064C83.2632 20.1541 83.5107 19.797 83.8496 19.5291C84.1806 19.288 84.5383 19.1678 84.9238 19.1678C85.0613 19.1678 85.1851 19.1777 85.2954 19.1953V20.6243Z" fill="white"/>
<path d="M91.9423 22.3598C91.9423 22.6283 91.9251 22.8547 91.8881 23.0395H87.429C87.4464 23.7059 87.6619 24.2155 88.0761 24.5671C88.4517 24.8812 88.9377 25.0387 89.5345 25.0387C90.1948 25.0387 90.7969 24.9326 91.3388 24.7195L91.5714 25.7599C90.9385 26.0383 90.1912 26.1768 89.3289 26.1768C88.2915 26.1768 87.4773 25.8688 86.8847 25.2537C86.2934 24.6386 85.9971 23.8127 85.9971 22.7766C85.9971 21.7595 86.2726 20.9125 86.824 20.237C87.4012 19.5158 88.1813 19.1552 89.1629 19.1552C90.1271 19.1552 90.8569 19.5158 91.3526 20.237C91.745 20.8098 91.9423 21.5184 91.9423 22.3598ZM90.5252 21.9711C90.5348 21.5268 90.438 21.143 90.2366 20.819C89.9793 20.4021 89.584 20.1941 89.052 20.1941C88.566 20.1941 88.1708 20.3972 87.869 20.8049C87.6215 21.129 87.4744 21.5177 87.429 21.9704H90.5252V21.9711Z" fill="white"/>
<path d="M37.8797 10.7887H38.6456C39.3855 10.7887 39.8191 11.1225 39.8191 11.685V11.6925C39.8191 12.2137 39.363 12.555 38.6681 12.555C37.9581 12.555 37.5062 12.2737 37.4464 11.775L37.4426 11.745H36.6243L36.6281 11.79C36.684 12.6825 37.4763 13.29 38.6681 13.29C39.8226 13.29 40.6747 12.6225 40.6747 11.73V11.7225C40.6747 10.995 40.2299 10.4812 39.5089 10.3912V10.3612C40.1067 10.2225 40.5101 9.71999 40.5101 9.11999V9.1125C40.5101 8.27624 39.7703 7.69873 38.6868 7.69873C37.5583 7.69873 36.8223 8.25747 36.7663 9.1725L36.7625 9.22499H37.566L37.5695 9.1725C37.6332 8.70747 38.0256 8.43373 38.6607 8.43373C39.3071 8.43373 39.6808 8.7225 39.6808 9.2025V9.20999C39.6808 9.72747 39.2659 10.0837 38.6234 10.0837H37.8797V10.7887Z" fill="white"/>
<path d="M43.3808 13.2713C43.9038 13.2713 44.356 13.0013 44.5839 12.5775H44.6026V13.2001H45.4096V10.4813C45.4096 9.69005 44.8006 9.18005 43.8405 9.18005C42.8727 9.18005 42.2861 9.70131 42.2299 10.3801L42.2263 10.4213H42.9884L42.9958 10.3875C43.0633 10.0726 43.351 9.85131 43.818 9.85131C44.3187 9.85131 44.6026 10.1138 44.6026 10.5488V10.8451L43.5303 10.9088C42.5998 10.9651 42.0692 11.3851 42.0692 12.0713V12.0788C42.0692 12.7875 42.596 13.2713 43.3808 13.2713ZM42.8839 12.0601V12.0526C42.8839 11.7188 43.153 11.5051 43.6386 11.4751L44.6026 11.4151V11.7226C44.6026 12.2363 44.1693 12.6226 43.6013 12.6226C43.1678 12.6226 42.8839 12.4051 42.8839 12.0601Z" fill="white"/>
<path d="M49.7075 9.9V9.255H47.1034V13.2H47.9105V9.9H49.7075Z" fill="white"/>
<path d="M51.2256 14.5126H52.0327V12.5363H52.0513C52.283 12.9938 52.7352 13.2788 53.2919 13.2788C54.2783 13.2788 54.9247 12.4875 54.9247 11.2313V11.2275C54.9247 9.96754 54.2819 9.18005 53.2807 9.18005C52.7201 9.18005 52.2868 9.46505 52.0513 9.9338H52.0327V9.25505H51.2256V14.5126ZM53.0714 12.5813C52.4624 12.5813 52.0291 12.0488 52.0291 11.2313V11.2275C52.0291 10.4063 52.4585 9.8738 53.0714 9.8738C53.7066 9.8738 54.1026 10.3875 54.1026 11.2275V11.2313C54.1026 12.0638 53.7066 12.5813 53.0714 12.5813Z" fill="white"/>
<path d="M56.82 14.5163C57.5898 14.5163 58.0008 14.2013 58.2923 13.3837L59.757 9.255H58.905L57.9147 12.465H57.8887L56.8984 9.255H56.0242L57.4554 13.2037L57.3879 13.3913C57.2535 13.7737 57.0443 13.875 56.6631 13.875C56.5548 13.875 56.4613 13.86 56.3979 13.845V14.4787C56.495 14.4975 56.6631 14.5163 56.82 14.5163Z" fill="white"/>
<path d="M62.5305 13.2788C63.4944 13.2788 64.1334 12.7875 64.1334 12.0526V12.0451C64.1334 11.5838 63.8493 11.2688 63.3299 11.1638V11.1338C63.7522 11.0363 64.025 10.7026 64.025 10.2788V10.2713C64.025 9.59631 63.4719 9.18005 62.5678 9.18005C61.6823 9.18005 61.1031 9.60005 61.0096 10.3013L61.006 10.3313H61.7756L61.7794 10.3051C61.8392 10.0051 62.1342 9.82131 62.5565 9.82131C62.9824 9.82131 63.2366 10.0201 63.2366 10.3575V10.3651C63.2366 10.7175 62.9937 10.8975 62.5192 10.8975H61.9549V11.4863H62.5228C63.0685 11.4863 63.3299 11.6663 63.3299 12.0451V12.0526C63.3299 12.4126 63.0236 12.6338 62.5267 12.6338C62.0821 12.6338 61.7906 12.4613 61.7009 12.1426L61.6897 12.1051H60.8975L60.9013 12.1388C60.9797 12.8363 61.6113 13.2788 62.5305 13.2788Z" fill="white"/>
<path d="M65.6851 13.2H66.4809L68.2854 10.4287H68.3191V13.2H69.1223V9.255H68.3265L66.522 12.015H66.4845V9.255H65.6851V13.2Z" fill="white"/>
<path d="M73.8201 9.255H70.5509V9.9H71.78V13.2H72.5909V9.9H73.8201V9.255Z" fill="white"/>
<path d="M76.8551 13.2788C77.808 13.2788 78.4171 12.7088 78.5402 12.0826L78.5515 12.0413H77.7817L77.7707 12.0713C77.6698 12.3675 77.3522 12.6151 76.874 12.6151C76.2312 12.6151 75.824 12.1801 75.8089 11.4338H78.5926V11.1601C78.5926 9.97505 77.9163 9.18005 76.8142 9.18005C75.7118 9.18005 75.0018 10.0051 75.0018 11.2388V11.2426C75.0018 12.4875 75.7006 13.2788 76.8551 13.2788ZM76.8178 9.8438C77.3446 9.8438 77.7296 10.1775 77.793 10.8601H75.8201C75.895 10.2001 76.2948 9.8438 76.8178 9.8438Z" fill="white"/>
<path d="M82.5254 13.2H84.3339C85.1857 13.2 85.7164 12.7575 85.7164 12.0675V12.06C85.7164 11.5763 85.3801 11.2237 84.872 11.1563V11.1263C85.2493 11.055 85.5408 10.6837 85.5408 10.275V10.2675C85.5408 9.64126 85.0774 9.255 84.3115 9.255H82.5254V13.2ZM83.325 10.8825V9.855H84.1434C84.5319 9.855 84.7412 10.0313 84.7412 10.3575V10.365C84.7412 10.7137 84.5169 10.8825 84.0611 10.8825H83.325ZM83.325 12.6V11.4713H84.091C84.6216 11.4713 84.8868 11.6475 84.8868 12.0263V12.0337C84.8868 12.4087 84.6403 12.6 84.1845 12.6H83.325Z" fill="white"/>
</g>
<defs>
<clipPath id="clip0_0_219">
<rect width="121" height="36" fill="white"/>
</clipPath>
</defs>
</svg>
