<svg width="121" height="36" viewBox="0 0 121 36" fill="none" xmlns="http://www.w3.org/2000/svg">
<g clip-path="url(#clip0_0_241)">
<path d="M0 4.8C0 2.14903 2.14125 0 4.78261 0H116.217C118.859 0 121 2.14903 121 4.8V31.2C121 33.851 118.859 36 116.217 36H4.78261C2.14125 36 0 33.851 0 31.2V4.8Z" fill="black"/>
<path fill-rule="evenodd" clip-rule="evenodd" d="M0 31.2V4.8C0 2.14903 2.14125 0 4.78261 0H116.217C118.859 0 121 2.14903 121 4.8V31.2C121 33.851 118.859 36 116.217 36H4.78261C2.14125 36 0 33.851 0 31.2ZM0.717391 31.2V4.8C0.717391 2.54669 2.53746 0.72 4.78261 0.72H116.217C118.463 0.72 120.283 2.54669 120.283 4.8V31.2C120.283 33.4534 118.463 35.28 116.217 35.28H4.78261C2.53746 35.28 0.717391 33.4534 0.717391 31.2Z" fill="white" fill-opacity="0.3"/>
<path d="M61.3097 19.5575C59.1564 19.5575 57.3772 21.2452 57.3772 23.5593C57.3772 25.8545 59.1377 27.5611 61.3097 27.5611C63.4818 27.5611 65.242 25.8732 65.242 23.5593C65.242 21.2452 63.4818 19.5575 61.3097 19.5575ZM61.3097 25.9687C60.1296 25.9687 59.1004 24.9631 59.1004 23.5414C59.1004 22.1 60.1304 21.1142 61.3097 21.1142C62.4889 21.1142 63.5188 22.1 63.5188 23.5414C63.5188 24.9631 62.4889 25.9687 61.3097 25.9687ZM52.752 19.5575C50.58 19.5575 48.8195 21.2452 48.8195 23.5593C48.8195 25.8545 50.58 27.5611 52.752 27.5611C54.924 27.5611 56.6845 25.8732 56.6845 23.5593C56.6845 21.2452 54.9242 19.5575 52.752 19.5575ZM52.752 25.9687C51.5719 25.9687 50.5429 24.9631 50.5429 23.5414C50.5429 22.1 51.5728 21.1142 52.752 21.1142C53.9321 21.1142 54.9613 22.1 54.9613 23.5414C54.9613 24.9631 53.9496 25.9687 52.752 25.9687ZM42.5839 20.7904V22.4781H46.5535C46.4406 23.4263 46.1233 24.1282 45.6548 24.6026C45.0745 25.1904 44.1756 25.8355 42.5839 25.8355C40.1304 25.8355 38.2399 23.8253 38.2399 21.3405C38.2399 18.8558 40.1314 16.8075 42.5839 16.8075C43.913 16.8075 44.8686 17.3387 45.5802 18.0218L46.7594 16.8264C45.7665 15.8595 44.4374 15.12 42.5839 15.12C39.2316 15.12 36.4225 17.9075 36.4225 21.3027C36.4225 24.6982 39.2316 27.4858 42.5839 27.4858C44.4001 27.4858 45.7488 26.879 46.8347 25.7405C47.9395 24.6216 48.2764 23.0469 48.2764 21.7764C48.2764 21.3783 48.2394 21.0178 48.1827 20.7142L42.5839 20.7904ZM84.1924 22.0989C83.8739 21.2074 82.8633 19.5575 80.84 19.5575C78.8172 19.5575 77.1509 21.1698 77.1509 23.5593C77.1509 25.7969 78.8172 27.5611 81.0275 27.5611C82.825 27.5611 83.8552 26.4422 84.2854 25.7969L82.9565 24.8866C82.5065 25.5509 81.9077 25.9865 81.0275 25.9865C80.1472 25.9865 79.5298 25.5883 79.1357 24.7726L84.3602 22.5537L84.1924 22.0989ZM78.8741 23.4461C78.8368 21.9093 80.0542 21.1131 80.9146 21.1131C81.6079 21.1131 82.1696 21.4545 82.3752 21.9669L78.8741 23.4461ZM74.6231 27.2959H76.3463V15.5746H74.6231V27.2959ZM71.815 20.449H71.759C71.3659 19.9745 70.6358 19.5575 69.6989 19.5575C67.7325 19.5575 65.9537 21.3216 65.9537 23.5593C65.9537 25.7969 67.7512 27.5424 69.6989 27.5424C70.6349 27.5424 71.3652 27.125 71.759 26.6318H71.815V27.2006C71.815 28.7376 71.0093 29.5524 69.7176 29.5524C68.6687 29.5524 68.0131 28.775 67.7512 28.1299L66.2538 28.775C66.6837 29.8373 67.8268 31.1458 69.7176 31.1458C71.7397 31.1458 73.4439 29.9318 73.4439 26.9923V19.8038H71.815V20.449ZM69.8489 25.9687C68.6687 25.9687 67.6768 24.9631 67.6768 23.5603C67.6768 22.1575 68.6697 21.1329 69.8489 21.1329C71.0103 21.1329 71.9463 22.1575 71.9463 23.5603C71.9455 24.9442 71.0094 25.9687 69.8489 25.9687ZM92.2257 15.5748H88.1062V27.2959H89.8292V22.8573H92.2257C94.1361 22.8573 96.0083 21.4535 96.0083 19.2161C96.0083 16.9784 94.1361 15.5748 92.2257 15.5748ZM92.2814 21.2273H89.8469V17.2056H92.2814C93.5548 17.2056 94.3038 18.2867 94.3038 19.2159C94.2858 20.1263 93.5558 21.2273 92.2814 21.2273ZM102.881 19.5386C101.645 19.5386 100.353 20.0887 99.8286 21.3405L101.346 21.9857C101.683 21.3405 102.282 21.132 102.919 21.132C103.818 21.132 104.717 21.6819 104.735 22.6488V22.7631C104.417 22.5735 103.762 22.3074 102.938 22.3074C101.29 22.3074 99.6227 23.2367 99.6227 24.9442C99.6227 26.5186 100.971 27.5234 102.469 27.5234C103.631 27.5234 104.267 26.9923 104.66 26.3666H104.716V27.2772H106.382V22.7817C106.364 20.7148 104.847 19.5386 102.881 19.5386ZM102.675 25.9498C102.113 25.9498 101.327 25.6649 101.327 24.9638C101.327 24.0535 102.3 23.7121 103.143 23.7121C103.891 23.7121 104.247 23.8828 104.716 24.1102C104.585 25.1914 103.667 25.9498 102.675 25.9498ZM112.394 19.8048L110.427 24.8686H110.371L108.331 19.8046H106.477L109.548 26.8978L107.806 30.8618H109.604L114.303 19.8046H112.393L112.394 19.8048ZM96.9636 27.2959H98.6868V15.5746H96.9636V27.2959Z" fill="white"/>
<path d="M41.6287 10.0809V11.8214H40.9123V10.7999H37.618V11.8214H36.9016V10.0809H37.4373C37.6159 9.83001 37.7477 9.46936 37.8323 8.99896C37.9172 8.52408 37.9595 8.00889 37.9595 7.45336V5.9884H41.0998V10.0809H41.6287ZM40.3499 10.0809V6.70744H38.7027V7.58104C38.7027 8.08281 38.6626 8.54872 38.5822 8.9788C38.5064 9.40888 38.3904 9.77625 38.234 10.0809H40.3499Z" fill="white"/>
<path d="M44.6691 10.9075C44.2048 10.9075 43.7829 10.7978 43.4037 10.5783C43.0242 10.3543 42.725 10.0496 42.5062 9.66434C42.292 9.27907 42.1851 8.85571 42.1851 8.39426C42.1851 7.93281 42.292 7.51171 42.5062 7.1309C42.725 6.74563 43.0242 6.44097 43.4037 6.21698C43.7829 5.99299 44.2048 5.88098 44.6691 5.88098C45.1333 5.88098 45.553 5.99299 45.9279 6.21698C46.3072 6.44097 46.6063 6.74563 46.8249 7.1309C47.0437 7.51171 47.1532 7.93281 47.1532 8.39426C47.1532 8.85571 47.0437 9.27907 46.8249 9.66434C46.6106 10.0496 46.3139 10.3543 45.9346 10.5783C45.5551 10.7978 45.1333 10.9075 44.6691 10.9075ZM44.6691 10.1885C44.986 10.1885 45.2761 10.1123 45.5396 9.96002C45.8029 9.80769 46.0104 9.59714 46.1623 9.32834C46.3139 9.05505 46.3897 8.7437 46.3897 8.39426C46.3897 8.04482 46.3139 7.7357 46.1623 7.4669C46.0104 7.19361 45.8029 6.98083 45.5396 6.8285C45.2761 6.67617 44.986 6.60002 44.6691 6.60002C44.3521 6.60002 44.062 6.67617 43.7985 6.8285C43.5352 6.98083 43.3255 7.19361 43.1691 7.4669C43.0175 7.7357 42.9414 8.04482 42.9414 8.39426C42.9414 8.7437 43.0175 9.05505 43.1691 9.32834C43.3255 9.59714 43.5352 9.80769 43.7985 9.96002C44.062 10.1123 44.3521 10.1885 44.6691 10.1885Z" fill="white"/>
<path d="M50.2078 10.9075C49.7434 10.9075 49.3194 10.7978 48.9356 10.5783C48.5516 10.3587 48.2503 10.0563 48.0317 9.67106C47.8129 9.28579 47.7036 8.86017 47.7036 8.39426C47.7036 7.92835 47.8129 7.50273 48.0317 7.11746C48.2503 6.73219 48.5516 6.42979 48.9356 6.21026C49.3194 5.99073 49.7434 5.88098 50.2078 5.88098C50.5694 5.88098 50.8974 5.94818 51.192 6.08258C51.491 6.21698 51.7545 6.41186 51.9821 6.66722L51.4465 7.18466C51.2812 6.98755 51.0983 6.84194 50.8974 6.74786C50.6966 6.64929 50.4665 6.60002 50.2078 6.60002C49.8864 6.60002 49.5918 6.67394 49.324 6.82178C49.0604 6.96962 48.8507 7.18017 48.6946 7.45346C48.5382 7.72226 48.4602 8.03587 48.4602 8.39426C48.4602 8.75265 48.5382 9.06849 48.6946 9.34178C48.8507 9.61058 49.0604 9.8189 49.324 9.96674C49.5918 10.1146 49.8864 10.1885 50.2078 10.1885C50.7434 10.1885 51.1987 9.96451 51.5737 9.5165L52.116 10.0407C51.8839 10.3139 51.6048 10.5267 51.2791 10.6791C50.9532 10.8314 50.5961 10.9075 50.2078 10.9075Z" fill="white"/>
<path d="M53.9241 6.70744H52.585V5.9884H56.0131V6.70744H54.674V10.7999H53.9241V6.70744Z" fill="white"/>
<path d="M57.2547 10.9074C57.0895 10.9074 56.9489 10.8783 56.8329 10.8201V10.0876C56.9802 10.1682 57.1141 10.2086 57.2346 10.2086C57.3551 10.2086 57.451 10.1862 57.5225 10.1414C57.594 10.0921 57.6586 10.0025 57.7167 9.87256L57.8841 9.52312L56.2905 5.9884H57.1275L58.2457 8.65624H58.2858L59.4107 5.9884H60.2477L58.413 10.0338C58.2791 10.334 58.1163 10.5558 57.9243 10.6991C57.7368 10.838 57.5137 10.9074 57.2547 10.9074Z" fill="white"/>
<path d="M60.8979 5.9884H64.4667V10.7999H63.7168V6.70744H61.6479V10.7999H60.8979V5.9884Z" fill="white"/>
<path d="M65.5601 5.9884H66.31V7.98424H68.5329V5.9884H69.2761V10.7999H68.5329V8.69656H66.31V10.7999H65.5601V5.9884Z" fill="white"/>
<path d="M72.55 10.9075C72.0859 10.9075 71.664 10.7978 71.2845 10.5783C70.9053 10.3543 70.6061 10.0496 70.3873 9.66434C70.173 9.27907 70.0659 8.85571 70.0659 8.39426C70.0659 7.93281 70.173 7.51171 70.3873 7.1309C70.6061 6.74563 70.9053 6.44097 71.2845 6.21698C71.664 5.99299 72.0859 5.88098 72.55 5.88098C73.0144 5.88098 73.4338 5.99299 73.8088 6.21698C74.1883 6.44097 74.4874 6.74563 74.706 7.1309C74.9248 7.51171 75.0341 7.93281 75.0341 8.39426C75.0341 8.85571 74.9248 9.27907 74.706 9.66434C74.4917 10.0496 74.195 10.3543 73.8155 10.5783C73.4362 10.7978 73.0144 10.9075 72.55 10.9075ZM72.55 10.1885C72.8671 10.1885 73.1572 10.1123 73.4204 9.96002C73.684 9.80769 73.8915 9.59714 74.0431 9.32834C74.195 9.05505 74.2708 8.7437 74.2708 8.39426C74.2708 8.04482 74.195 7.7357 74.0431 7.4669C73.8915 7.19361 73.684 6.98083 73.4204 6.8285C73.1572 6.67617 72.8671 6.60002 72.55 6.60002C72.2332 6.60002 71.9431 6.67617 71.6796 6.8285C71.4163 6.98083 71.2066 7.19361 71.0502 7.4669C70.8986 7.7357 70.8225 8.04482 70.8225 8.39426C70.8225 8.7437 70.8986 9.05505 71.0502 9.32834C71.2066 9.59714 71.4163 9.80769 71.6796 9.96002C71.9431 10.1123 72.2332 10.1885 72.55 10.1885Z" fill="white"/>
<path d="M77.4603 5.9884H79.2615C79.5159 5.9884 79.7502 6.0444 79.9645 6.1564C80.1833 6.26841 80.3574 6.42297 80.4868 6.62008C80.6164 6.8172 80.6809 7.03449 80.6809 7.27192C80.6809 7.50936 80.6207 7.71544 80.5002 7.89016C80.3842 8.06488 80.2302 8.19705 80.0382 8.28664V8.32696C80.2792 8.41209 80.4734 8.55321 80.6207 8.75032C80.7725 8.94744 80.8483 9.17817 80.8483 9.44248C80.8483 9.70679 80.7792 9.942 80.6408 10.1481C80.5069 10.3542 80.3239 10.5155 80.0917 10.6319C79.8641 10.7439 79.6142 10.7999 79.3418 10.7999H77.4603V5.9884ZM79.228 8.0044C79.4422 8.0044 79.6142 7.9372 79.7435 7.8028C79.8775 7.6684 79.9444 7.51384 79.9444 7.33912C79.9444 7.1644 79.8799 7.01208 79.7502 6.88216C79.6254 6.74776 79.4602 6.68056 79.2548 6.68056H78.2102V8.0044H79.228ZM79.3418 10.101C79.5695 10.101 79.7502 10.0294 79.8842 9.886C80.0226 9.74265 80.0917 9.57688 80.0917 9.38872C80.0917 9.19607 80.0205 9.03033 79.8775 8.89144C79.7392 8.74809 79.5518 8.6764 79.315 8.6764H78.2102V10.101H79.3418Z" fill="white"/>
<path d="M25.5133 21.8597C28.3783 20.2663 30.5503 19.0523 30.7376 18.958C31.3363 18.6353 31.955 17.7815 30.7376 17.1184C30.3444 16.91 28.2284 15.7335 25.5133 14.2167L21.7496 18.0664L25.5133 21.8597Z" fill="#FFD900"/>
<path d="M21.7495 18.0665L9.76514 30.3002C10.0463 30.3379 10.3638 30.2623 10.7384 30.0537C11.5246 29.6181 19.8576 25.0087 25.5133 21.8607L21.7495 18.0665Z" fill="#F43249"/>
<path d="M21.7497 18.0665L25.5131 14.2354C25.5131 14.2354 11.5816 6.53484 10.7385 6.08044C10.4213 5.88938 10.0654 5.83291 9.74695 5.88938L21.7497 18.0665Z" fill="#00EE76"/>
<path d="M21.7497 18.0666L9.74665 5.88965C9.25949 6.00367 8.84778 6.43956 8.84778 7.33068V28.8586C8.84778 29.6746 9.1664 30.2624 9.76511 30.3188L21.7494 18.0663L21.7497 18.0666Z" fill="#00D3FF"/>
</g>
<defs>
<clipPath id="clip0_0_241">
<rect width="121" height="36" fill="white"/>
</clipPath>
</defs>
</svg>
